<?xml version='1.0' encoding='UTF-8' standalone='no'?>
<svg xmlns:xlink="http://www.w3.org/1999/xlink" baseProfile="tiny" viewBox="0 0 5940 4200" width="594mm" xmlns="http://www.w3.org/2000/svg" xmlns:freecad="http://www.freecadweb.org/wiki/index.php?title=Svg_Namespace" height="420mm" version="1.2">
 <title>FreeCAD SVG Export</title>
 <desc>Drawing page: Page004 exported from FreeCAD document: lommelykt32mm1</desc>
 <defs/>
 <g id="Page004">
  <g transform="scale(10.000000, 10.000000)" id="A2_Landscape_ISO7200_Pep2.svg" style="stroke: none;">
   <g id="orientation-border" style="fill:none;stroke:#000000;stroke-width:0.20;stroke-linecap:miter;stroke-miterlimit:4">
    <rect x="20" width="564" y="10" height="400"/>
    <!-- orientation separators top -->
    <path d="m 79,10 v 4"/>
    <path d="m 135,10 v 4"/>
    <path d="m 191,10 v 4"/>
    <path d="m 247,10 v 4"/>
    <path d="m 303,10 v 4"/>
    <path d="m 359,10 v 4"/>
    <path d="m 415,10 v 4"/>
    <path d="m 471,10 v 4"/>
    <path d="m 527,10 v 4"/>
    <!-- orientation separators left -->
    <path d="m 20,68 h 4"/>
    <path d="m 20,125 h 4"/>
    <path d="m 20,182 h 4"/>
    <path d="m 20,239 h 4"/>
    <path d="m 20,296 h 4"/>
    <path d="m 20,353 h 4"/>
    <!-- orientation separators right -->
    <path d="m 580,68 h 4"/>
    <path d="m 580,125 h 4"/>
    <path d="m 580,182 h 4"/>
    <path d="m 580,239 h 4"/>
    <path d="m 580,296 h 4"/>
    <path d="m 580,353 h 4"/>
    <!-- orientation separators bottom -->
    <path d="m 79,406 v 4"/>
    <path d="m 135,406 v 4"/>
    <path d="m 191,406 v 4"/>
    <path d="m 247,406 v 4"/>
    <path d="m 303,406 v 4"/>
    <path d="m 359,406 v 4"/>
    <path d="m 415,406 v 4"/>
    <path d="m 471,406 v 4"/>
    <path d="m 527,406 v 4"/>
   </g>
   <g id="orientation-text" style="font-size:3px;text-anchor:start;fill:#000000;font-family:tahoma">
    <!-- orientation char top -->
    <text x="49" y="13">1</text>
    <text x="106" y="13">2</text>
    <text x="162" y="13">3</text>
    <text x="218" y="13">4</text>
    <text x="274" y="13">5</text>
    <text x="331" y="13">6</text>
    <text x="386" y="13">7</text>
    <text x="442" y="13">8</text>
    <text x="498" y="13">9</text>
    <text x="553" y="13">10</text>
    <!-- orientation char right -->
    <text x="21" y="41">A</text>
    <text x="21" y="98">B</text>
    <text x="21" y="155">C</text>
    <text x="21" y="212">D</text>
    <text x="21" y="269">E</text>
    <text x="21" y="326">F</text>
    <text x="21" y="382">G</text>
    <!-- orientation char left -->
    <text x="581" y="41">A</text>
    <text x="581" y="98">B</text>
    <text x="581" y="155">C</text>
    <text x="581" y="212">D</text>
    <text x="581" y="269">E</text>
    <text x="581" y="326">F</text>
    <text x="581" y="382">G</text>
    <!-- orientation char bottom -->
    <text x="49" y="409">1</text>
    <text x="106" y="409">2</text>
    <text x="162" y="409">3</text>
    <text x="218" y="409">4</text>
    <text x="274" y="409">5</text>
    <text x="331" y="409">6</text>
    <text x="386" y="409">7</text>
    <text x="442" y="409">8</text>
    <text x="498" y="409">9</text>
    <text x="553" y="409">10</text>
   </g>
   <g id="drawing-border" style="fill:none;stroke:#000000;stroke-width:0.35;stroke-linecap:miter;stroke-miterlimit:4">
    <rect x="24" width="556" y="14" height="392"/>
   </g>
   <g id="titleblock-structure" style="fill:none;stroke:#000000;stroke-width:0.35;stroke-linecap:miter;stroke-miterlimit:4">
    <rect x="440" width="140" y="372" height="34"/>
    <path d="m 440,380 h 140"/>
    <!-- upper horizontal Separator Titleblock -->
    <path d="m 440,398 h 87"/>
    <!-- lower horizontal Separator Document-Type -->
    <path d="m 440,402 h 140"/>
    <!-- lower horizontal Separator Copyright -->
    <path d="m 485,372 v 8"/>
    <!-- Separator Author / Owner -->
    <path d="m 527,372 v 30"/>
    <!-- Separator Title / Liste RH -->
    <path d="m 557,372 v 8"/>
    <!-- Separator Scale / Sheet -->
    <path d="m 527,388 h 53"/>
    <!-- Separator Part / Drawing-Nr -->
    <path d="m 527,394 h 53"/>
    <!-- Separator DRW-Info / Revision -->
    <path d="m 557,394 v 8"/>
    <!-- Separator Date / Revision -->
   </g>
   <g id="titleblock-text-non-editable" style="font-size:3px;text-anchor:start;fill:#000000;font-family:tahoma">
    <text x="441" y="375">Author:</text>
    <text x="441" y="379">Appr.:</text>
    <text x="486" y="375">Legal owner:</text>
    <text x="441" y="384">TITLE:</text>
    <text x="441" y="401">Document type:</text>
    <text x="558" y="375">Sheet:</text>
    <text x="558" y="379">Size:</text>
    <text x="528" y="375">Scale:</text>
    <text x="528" y="379">Toler.:</text>
    <text x="528" y="383">Part material:</text>
    <text x="528" y="387">Part number:</text>
    <text x="528" y="392">Drawing no.:</text>
    <text x="528" y="397">Date:</text>
    <text x="558" y="397">Revision:</text>
   </g>
   <g id="titleblock-text-editable" style="font-size:3px;text-anchor:start;fill:#000000;font-family:tahoma">
    <text freecad:editable="AUTHOR_NAME" x="452" y="375">
     <tspan xml:space="preserve">Supermagnum</tspan>
    </text>
    <text freecad:editable="APPROVER_NAME" x="452" y="379">
     <tspan xml:space="preserve">Supermagnum</tspan>
    </text>
    <text freecad:editable="OWNER_NAME" x="487" y="379">
     <tspan xml:space="preserve">Supermagnum</tspan>
    </text>
    <text freecad:editable="TITLELINE-1" x="442" y="388">
     <tspan xml:space="preserve">Lenscap</tspan>
    </text>
    <text freecad:editable="TITLELINE-2" x="442" y="392">
     <tspan xml:space="preserve">krbjhvee@online.no</tspan>
    </text>
    <text freecad:editable="TITLELINE-3" x="442" y="396">
     <tspan xml:space="preserve"/>
    </text>
    <text freecad:editable="DOCUMENT_TYPE" x="464" y="401">Mechanical assembly drawing<tspan xml:space="preserve"/>
    </text>
    <text freecad:editable="SHEET" x="567" y="375">
     <tspan xml:space="preserve"/>
    </text>
    <text freecad:editable="SCALE" x="537" y="375">
     <tspan xml:space="preserve">M 1:2</tspan>
    </text>
    <text freecad:editable="TOLERANCE" x="537" y="379">
     <tspan xml:space="preserve">+/- ?</tspan>
    </text>
    <text freecad:editable="PM" x="547" y="383">
     <tspan xml:space="preserve">PM</tspan>
    </text>
    <text freecad:editable="PN" x="547" y="387">
     <tspan xml:space="preserve">PN</tspan>
    </text>
    <text freecad:editable="DN" x="547" y="392">
     <tspan xml:space="preserve">DN</tspan>
    </text>
    <text freecad:editable="DATE" x="529" y="401">
     <tspan xml:space="preserve">YYYY-MM-DD</tspan>
    </text>
    <text freecad:editable="REVISION" x="559" y="401">
     <tspan xml:space="preserve">REV A</tspan>
    </text>
    <text freecad:editable="SIZE" x="567" y="379">
     <tspan xml:space="preserve">A2</tspan>
    </text>
    <text freecad:editable="RIGHTS" x="441" y="405">
     <tspan xml:space="preserve">(R) DO NOT DUPLICATE THIS DRAWING TO THIRD PARTIES WITHOUT OWNER'S PERMISSION !</tspan>
    </text>
   </g>
   <!-- Set display:none to hide FreeCAD Logo or remove this and next 4 lines from this code -->
   <g fill="none" transform="translate(428,395)" fill-rule="evenodd" stroke-width="0.35" id="freecad-logo" style="display:inline" stroke="#000">
    <path d="m0.1524 0.15254v8.8549h1.9744v-3.4652h1.396v-1.3661h-1.396v-1.4745h3.4391v-2.5441l-5.4135-0.005z"/>
    <path d="m7.7927 3.4504-0.50715-0.176-0.48387-1.2366-0.76115 0.04-0.34718 1.2787-0.4859 0.23269-1.2119-0.53015-0.51188 0.56882 0.65892 1.1485-0.18006 0.50567-1.2366 0.48387 0.044064 0.76263 1.2787 0.34718 0.23269 0.4859-0.53421 1.2104 0.56882 0.51188 1.1485-0.65891 0.50973 0.18155 0.4798 1.2351 0.7667-0.04258 0.34311-1.2802 0.4859-0.23269 1.2145 0.5357 0.51188-0.56882-0.65891-1.1485 0.17748-0.51122 1.2351-0.4798-0.03851-0.76521-1.2802-0.34311-0.23269-0.4859 0.53163-1.216-0.56881-0.51184zm-0.5715 1.2244 0.23576 0.13679 0.20426 0.18519 0.16353 0.22101 0.11763 0.24572 0.06916 0.26489 0.01146 0.27146-0.03921 0.27139-0.08948 0.25764-0.14234 0.23834-0.17964 0.20167-0.22101 0.16353-0.24572 0.11763-0.26489 0.06916-0.27295 0.01553-0.2719-0.04-0.2576-0.089-0.2383-0.143-0.2002-0.183-0.165-0.217-0.1177-0.246-0.0676-0.269-0.0156-0.273 0.039206-0.2714 0.089484-0.25764 0.14085-0.23427 0.18113-0.20574 0.22101-0.16352 0.24572-0.11763 0.26895-0.06768 0.27147-0.01146 0.27139 0.03921 0.25764 0.08948z"/>
   </g>
  </g>
  <g fill="none" stroke-linecap="square" stroke-linejoin="bevel" stroke-width="1" fill-rule="evenodd" id="DrawingContent" stroke="black">
   <g fill="#ffffff" font-family="Noto Sans" font-weight="400" transform="matrix(1,0,0,1,2970,2100)" font-size="31.75" fill-opacity="1" font-style="normal" stroke="none">
    <path d="M480,5 L486.523,5 L526.461,5 L540,5 L540,-195 L-540,-195 L-540,5 L-526.461,5 L-486.523,5 L-480,5 L-480,195 L480,195 L480,5" vector-effect="non-scaling-stroke" fill-rule="evenodd"/>
   </g>
   <g fill="none" font-family="Noto Sans" font-weight="400" transform="matrix(1,0,0,1,2970,2100)" font-size="31.75" stroke-linecap="square" stroke-opacity="1" stroke-linejoin="bevel" stroke-width="1" font-style="normal" stroke="#000000">
    <rect x="0" width="0" y="0" height="0"/>
   </g>
   <g fill="#ffffff" font-family="Noto Sans" font-weight="400" transform="matrix(1,0,0,1,2970,2100)" font-size="31.75" fill-opacity="1" font-style="normal" stroke="none">
    <path d="M-540,-195 L-540,5 L-526.461,5 L-486.523,5 L-480,5 L-422.189,5 L-336.684,5 L-234.297,5 L-120.161,5 L-1.06581e-13,5 L120.161,5 L234.297,5 L336.684,5 L422.189,5 L480,5 L486.523,5 L526.461,5 L540,5 L540,-195 L-540,-195" vector-effect="non-scaling-stroke" fill-rule="evenodd"/>
   </g>
   <g fill="none" font-family="Noto Sans" font-weight="400" transform="matrix(1,0,0,1,2970,2100)" font-size="31.75" stroke-linecap="square" stroke-opacity="1" stroke-linejoin="bevel" stroke-width="1" font-style="normal" stroke="#000000">
    <rect x="0" width="0" y="0" height="0"/>
   </g>
   <g fill="#ffffff" font-family="Noto Sans" font-weight="400" transform="matrix(1,0,0,1,2970,2100)" font-size="31.75" fill-opacity="1" font-style="normal" stroke="none">
    <path d="M480,5 L480,195 L-480,195 L-480,5 L-422.189,5 L-336.684,5 L-234.297,5 L-120.161,5 L-1.06581e-13,5 L120.161,5 L234.297,5 L336.684,5 L422.189,5 L480,5" vector-effect="non-scaling-stroke" fill-rule="evenodd"/>
   </g>
   <g fill="none" font-family="Noto Sans" font-weight="400" transform="matrix(1,0,0,1,2970,2100)" font-size="31.75" stroke-linecap="square" stroke-opacity="1" stroke-linejoin="bevel" stroke-width="1" font-style="normal" stroke="#000000">
    <rect x="0" width="0" y="0" height="0"/>
   </g>
   <g fill="none" font-family="Noto Sans" font-weight="400" transform="matrix(1,0,0,1,2970,2100)" font-size="31.75" stroke-linecap="round" stroke-opacity="1" stroke-linejoin="bevel" stroke-width="7" font-style="normal" stroke="#000000">
    <path d="M540,5 L540,-195" vector-effect="none" fill-rule="evenodd"/>
   </g>
   <g fill="none" font-family="Noto Sans" font-weight="400" transform="matrix(1,0,0,1,2970,2100)" font-size="31.75" stroke-linecap="round" stroke-opacity="1" stroke-linejoin="bevel" stroke-width="7" font-style="normal" stroke="#000000">
    <path d="M-540,5 L540,5" vector-effect="none" fill-rule="evenodd"/>
   </g>
   <g fill="none" font-family="Noto Sans" font-weight="400" transform="matrix(1,0,0,1,2970,2100)" font-size="31.75" stroke-linecap="round" stroke-opacity="1" stroke-linejoin="bevel" stroke-width="7" font-style="normal" stroke="#000000">
    <path d="M-540,-195 L540,-195" vector-effect="none" fill-rule="evenodd"/>
   </g>
   <g fill="none" font-family="Noto Sans" font-weight="400" transform="matrix(1,0,0,1,2970,2100)" font-size="31.75" stroke-linecap="round" stroke-opacity="1" stroke-linejoin="bevel" stroke-width="7" font-style="normal" stroke="#000000">
    <path d="M480,5 L480,195" vector-effect="none" fill-rule="evenodd"/>
   </g>
   <g fill="none" font-family="Noto Sans" font-weight="400" transform="matrix(1,0,0,1,2970,2100)" font-size="31.75" stroke-linecap="round" stroke-opacity="1" stroke-linejoin="bevel" stroke-width="7" font-style="normal" stroke="#000000">
    <path d="M480,195 L-480,195" vector-effect="none" fill-rule="evenodd"/>
   </g>
   <g fill="none" font-family="Noto Sans" font-weight="400" transform="matrix(1,0,0,1,2970,2100)" font-size="31.75" stroke-linecap="round" stroke-opacity="1" stroke-linejoin="bevel" stroke-width="7" font-style="normal" stroke="#000000">
    <path d="M-540,-195 L-540,5" vector-effect="none" fill-rule="evenodd"/>
   </g>
   <g fill="none" font-family="Noto Sans" font-weight="400" transform="matrix(1,0,0,1,2970,2100)" font-size="31.75" stroke-linecap="round" stroke-opacity="1" stroke-linejoin="bevel" stroke-width="7" font-style="normal" stroke="#000000">
    <path d="M-480,195 L-480,5" vector-effect="none" fill-rule="evenodd"/>
   </g>
   <g fill="none" font-family="Noto Sans" font-weight="400" stroke-dasharray="28,14" transform="matrix(1,0,0,1,2970,2100)" font-size="31.75" stroke-linecap="round" stroke-opacity="1" stroke-linejoin="bevel" stroke-width="7" stroke-dashoffset="0" font-style="normal" stroke="#000000">
    <path d="M0,-245 L-52.5,-245 M0,245 L-52.5,245 M0,245 L0,-245" vector-effect="none" fill-rule="evenodd"/>
   </g>
   <g fill="#000000" font-family="Noto Sans" font-weight="400" transform="matrix(-1,8.74228e-08,-8.74228e-08,-1,2900,1855)" font-size="31.75" stroke-linecap="round" stroke-opacity="1" stroke-linejoin="bevel" stroke-width="1" fill-opacity="1" font-style="normal" stroke="#000000">
    <path d="M0,0 L-35,-5.83333 L-35,5.83333 L0,0" vector-effect="non-scaling-stroke" fill-rule="evenodd"/>
   </g>
   <g fill="#000000" font-family="Noto Sans" font-weight="400" transform="matrix(-1,8.74228e-08,-8.74228e-08,-1,2900,2345)" font-size="31.75" stroke-linecap="round" stroke-opacity="1" stroke-linejoin="bevel" stroke-width="1" fill-opacity="1" font-style="normal" stroke="#000000">
    <path d="M0,0 L-35,-5.83333 L-35,5.83333 L0,0" vector-effect="non-scaling-stroke" fill-rule="evenodd"/>
   </g>
   <g fill="none" font-family="Noto Sans" font-weight="400" transform="matrix(1,0,0,1,2871.78,1830)" font-size="31.75" stroke-linecap="square" stroke-opacity="1" stroke-linejoin="bevel" stroke-width="1" font-style="normal" stroke="#000000">
    <text fill="#000000" font-family="DejaVu Sans" xml:space="preserve" font-weight="400" font-size="35" x="4" fill-opacity="1" y="37" font-style="normal" stroke="none">A</text>
   </g>
   <g fill="none" font-family="Noto Sans" font-weight="400" transform="matrix(1,0,0,1,2871.78,2320)" font-size="31.75" stroke-linecap="square" stroke-opacity="1" stroke-linejoin="bevel" stroke-width="1" font-style="normal" stroke="#000000">
    <text fill="#000000" font-family="DejaVu Sans" xml:space="preserve" font-weight="400" font-size="35" x="4" fill-opacity="1" y="37" font-style="normal" stroke="none">A</text>
   </g>
   <g fill="none" font-family="Noto Sans" font-weight="400" transform="matrix(1,0,0,1,2894.56,1768.11)" font-size="31.75" stroke-linecap="square" stroke-opacity="1" stroke-linejoin="bevel" stroke-width="1" font-style="normal" stroke="#000000">
    <text fill="#000000" font-family="DejaVu Sans" xml:space="preserve" font-weight="400" font-size="35" x="4" fill-opacity="1" y="37" font-style="normal" stroke="none">54.0</text>
   </g>
   <g fill="none" font-family="Noto Sans" font-weight="400" transform="matrix(1,0,0,1,2970,2100)" font-size="31.75" stroke-linecap="round" stroke-opacity="1" stroke-linejoin="bevel" stroke-width="3.5" font-style="normal" stroke="#ff0000">
    <path d="M-540,-270.894 L540,-270.894 M540,-195 L540,-298.894 M-540,-195 L-540,-298.894" vector-effect="none" fill-rule="evenodd"/>
   </g>
   <g fill="#ff0000" font-family="Noto Sans" font-weight="400" transform="matrix(1,0,0,1,3510,1829.11)" font-size="31.75" stroke-linecap="round" stroke-opacity="1" stroke-linejoin="bevel" stroke-width="3.5" fill-opacity="1" font-style="normal" stroke="#ff0000">
    <path d="M0,0 L-35,-5.83333 L-35,5.83333 L0,0" vector-effect="none" fill-rule="evenodd"/>
   </g>
   <g fill="#ff0000" font-family="Noto Sans" font-weight="400" transform="matrix(1,0,0,1,2430,1829.11)" font-size="31.75" stroke-linecap="round" stroke-opacity="1" stroke-linejoin="bevel" stroke-width="3.5" fill-opacity="1" font-style="normal" stroke="#ff0000">
    <path d="M0,0 L35,5.83333 L35,-5.83333 L0,0" vector-effect="none" fill-rule="evenodd"/>
   </g>
   <g fill="none" font-family="Noto Sans" font-weight="400" transform="matrix(1,0,0,1,2915.6,2373.19)" font-size="31.75" stroke-linecap="square" stroke-opacity="1" stroke-linejoin="bevel" stroke-width="1" font-style="normal" stroke="#000000">
    <text fill="#000000" font-family="DejaVu Sans" xml:space="preserve" font-weight="400" font-size="35" x="4" fill-opacity="1" y="37" font-style="normal" stroke="none">48.0</text>
   </g>
   <g fill="none" font-family="Noto Sans" font-weight="400" transform="matrix(1,0,0,1,2970,2100)" font-size="31.75" stroke-linecap="round" stroke-opacity="1" stroke-linejoin="bevel" stroke-width="3.5" font-style="normal" stroke="#ff0000">
    <path d="M480,334.193 L-480,334.193 M-480,195 L-480,362.193 M480,195 L480,362.193" vector-effect="none" fill-rule="evenodd"/>
   </g>
   <g fill="#ff0000" font-family="Noto Sans" font-weight="400" transform="matrix(1,0,0,1,2490,2434.19)" font-size="31.75" stroke-linecap="round" stroke-opacity="1" stroke-linejoin="bevel" stroke-width="3.5" fill-opacity="1" font-style="normal" stroke="#ff0000">
    <path d="M0,0 L35,5.83333 L35,-5.83333 L0,0" vector-effect="none" fill-rule="evenodd"/>
   </g>
   <g fill="#ff0000" font-family="Noto Sans" font-weight="400" transform="matrix(1,0,0,1,3450,2434.19)" font-size="31.75" stroke-linecap="round" stroke-opacity="1" stroke-linejoin="bevel" stroke-width="3.5" fill-opacity="1" font-style="normal" stroke="#ff0000">
    <path d="M0,0 L-35,-5.83333 L-35,5.83333 L0,0" vector-effect="none" fill-rule="evenodd"/>
   </g>
   <g fill="none" font-family="Noto Sans" font-weight="400" transform="matrix(0,-1,1,0,2325.76,2180.95)" font-size="31.75" stroke-linecap="square" stroke-opacity="1" stroke-linejoin="bevel" stroke-width="1" font-style="normal" stroke="#000000">
    <text fill="#000000" font-family="DejaVu Sans" xml:space="preserve" font-weight="400" font-size="35" x="4" fill-opacity="1" y="37" font-style="normal" stroke="none">9.5</text>
   </g>
   <g fill="none" font-family="Noto Sans" font-weight="400" transform="matrix(1,0,0,1,2970,2100)" font-size="31.75" stroke-linecap="round" stroke-opacity="1" stroke-linejoin="bevel" stroke-width="3.5" font-style="normal" stroke="#ff0000">
    <path d="M-583.237,195 L-583.237,5 M-540,5 L-611.237,5 M-480,195 L-611.237,195" vector-effect="none" fill-rule="evenodd"/>
   </g>
   <g fill="#ff0000" font-family="Noto Sans" font-weight="400" transform="matrix(1,0,0,1,2386.76,2105)" font-size="31.75" stroke-linecap="round" stroke-opacity="1" stroke-linejoin="bevel" stroke-width="3.5" fill-opacity="1" font-style="normal" stroke="#ff0000">
    <path d="M0,0 L-5.83333,35 L5.83333,35 L0,0" vector-effect="none" fill-rule="evenodd"/>
   </g>
   <g fill="#ff0000" font-family="Noto Sans" font-weight="400" transform="matrix(1,0,0,1,2386.76,2295)" font-size="31.75" stroke-linecap="round" stroke-opacity="1" stroke-linejoin="bevel" stroke-width="3.5" fill-opacity="1" font-style="normal" stroke="#ff0000">
    <path d="M0,0 L5.83333,-35 L-5.83333,-35 L0,0" vector-effect="none" fill-rule="evenodd"/>
   </g>
   <g fill="none" font-family="Noto Sans" font-weight="400" transform="matrix(0,-1,1,0,2242.65,2037.88)" font-size="31.75" stroke-linecap="square" stroke-opacity="1" stroke-linejoin="bevel" stroke-width="1" font-style="normal" stroke="#000000">
    <text fill="#000000" font-family="DejaVu Sans" xml:space="preserve" font-weight="400" font-size="35" x="4" fill-opacity="1" y="37" font-style="normal" stroke="none">10.0</text>
   </g>
   <g fill="none" font-family="Noto Sans" font-weight="400" transform="matrix(1,0,0,1,2970,2100)" font-size="31.75" stroke-linecap="round" stroke-opacity="1" stroke-linejoin="bevel" stroke-width="3.5" font-style="normal" stroke="#ff0000">
    <path d="M-666.355,5 L-666.355,-195 M-540,-195 L-694.355,-195 M-540,5 L-694.355,5" vector-effect="none" fill-rule="evenodd"/>
   </g>
   <g fill="#ff0000" font-family="Noto Sans" font-weight="400" transform="matrix(1,0,0,1,2303.65,1905)" font-size="31.75" stroke-linecap="round" stroke-opacity="1" stroke-linejoin="bevel" stroke-width="3.5" fill-opacity="1" font-style="normal" stroke="#ff0000">
    <path d="M0,0 L-5.83333,35 L5.83333,35 L0,0" vector-effect="none" fill-rule="evenodd"/>
   </g>
   <g fill="#ff0000" font-family="Noto Sans" font-weight="400" transform="matrix(1,0,0,1,2303.65,2105)" font-size="31.75" stroke-linecap="round" stroke-opacity="1" stroke-linejoin="bevel" stroke-width="3.5" fill-opacity="1" font-style="normal" stroke="#ff0000">
    <path d="M0,0 L5.83333,-35 L-5.83333,-35 L0,0" vector-effect="none" fill-rule="evenodd"/>
   </g>
   <g fill="#ffffff" font-family="Noto Sans" font-weight="400" transform="matrix(1,0,0,1,2968.8,2946.98)" font-size="31.75" fill-opacity="1" font-style="normal" stroke="none">
    <path d="M390,-244 L540,-244 L540,-44 L480,-44 L480,146 L390,146 L-4.77612e-14,146 L-390,146 L-480,146 L-480,-44 L-540,-44 L-540,-244 L-390,-244 L4.77612e-14,-244 L390,-244" vector-effect="non-scaling-stroke" fill-rule="evenodd"/>
   </g>
   <g fill="none" font-family="Noto Sans" font-weight="400" transform="matrix(1,0,0,1,2968.8,2946.98)" font-size="31.75" stroke-linecap="square" stroke-opacity="1" stroke-linejoin="bevel" stroke-width="1" font-style="normal" stroke="#000000">
    <rect x="0" width="0" y="0" height="0"/>
   </g>
   <g fill="#ffffff" font-family="Noto Sans" font-weight="400" transform="matrix(1,0,0,1,2968.8,2946.98)" font-size="31.75" fill-opacity="1" font-style="normal" stroke="none">
    <path d="M-390,146 L-4.77612e-14,146 L390,146 L390,-244 L4.77612e-14,-244 L-390,-244 L-390,146" vector-effect="non-scaling-stroke" fill-rule="evenodd"/>
   </g>
   <g fill="none" font-family="Noto Sans" font-weight="400" transform="matrix(1,0,0,1,2968.8,2946.98)" font-size="31.75" stroke-linecap="square" stroke-opacity="1" stroke-linejoin="bevel" stroke-width="1" font-style="normal" stroke="#000000">
    <rect x="0" width="0" y="0" height="0"/>
   </g>
   <g fill="#ffffff" font-family="Noto Sans" font-weight="400" transform="matrix(1,0,0,1,2968.8,2946.98)" font-size="31.75" fill-opacity="1" font-style="normal" stroke="none">
    <path d="M480,146 L390,146 L390,-244 L540,-244 L540,-44 L480,-44 L480,146" vector-effect="non-scaling-stroke" fill-rule="evenodd"/>
   </g>
   <g fill="none" font-family="Noto Sans" font-weight="400" transform="matrix(1,0,0,1,2968.8,2946.98)" font-size="31.75" stroke-linecap="square" stroke-opacity="1" stroke-linejoin="bevel" stroke-width="1" font-style="normal" stroke="#000000">
    <rect x="0" width="0" y="0" height="0"/>
   </g>
   <g fill="#ffffff" font-family="Noto Sans" font-weight="400" transform="matrix(1,0,0,1,2968.8,2946.98)" font-size="31.75" fill-opacity="1" font-style="normal" stroke="none">
    <path d="M-390,146 L-390,-244 L-540,-244 L-540,-44 L-480,-44 L-480,146 L-390,146" vector-effect="non-scaling-stroke" fill-rule="evenodd"/>
   </g>
   <g fill="none" font-family="Noto Sans" font-weight="400" transform="matrix(1,0,0,1,2968.8,2946.98)" font-size="31.75" stroke-linecap="square" stroke-opacity="1" stroke-linejoin="bevel" stroke-width="1" font-style="normal" stroke="#000000">
    <rect x="0" width="0" y="0" height="0"/>
   </g>
   <g fill="#ffffff" font-family="Noto Sans" font-weight="400" transform="matrix(1,0,0,1,2968.8,2946.98)" font-size="31.75" stroke-linecap="round" stroke-opacity="1" stroke-linejoin="bevel" stroke-width="0.7" fill-opacity="1" font-style="normal" stroke="#000000">
    <path d="M-540,-244 L-390,-244 L-390,146 L-480,146 L-480,-44 L-540,-44 L-540,-244" vector-effect="none" fill-rule="evenodd"/>
   </g>
   <g fill="none" font-family="Noto Sans" font-weight="400" transform="matrix(1,0,0,1,2968.8,2946.98)" font-size="31.75" stroke-linecap="square" stroke-opacity="1" stroke-linejoin="bevel" stroke-width="1" font-style="normal" stroke="#000000">
    <rect x="0" width="0" y="0" height="0"/>
   </g>
   <g fill="#ffffff" font-family="Noto Sans" font-weight="400" transform="matrix(1,0,0,1,2968.8,2946.98)" font-size="31.75" stroke-linecap="round" stroke-opacity="1" stroke-linejoin="bevel" stroke-width="0.7" fill-opacity="1" font-style="normal" stroke="#000000">
    <path d="M480,146 L390,146 L390,-244 L540,-244 L540,-44 L480,-44 L480,146" vector-effect="none" fill-rule="evenodd"/>
   </g>
   <g fill="none" font-family="Noto Sans" font-weight="400" transform="matrix(1,0,0,1,2968.8,2946.98)" font-size="31.75" stroke-linecap="square" stroke-opacity="1" stroke-linejoin="bevel" stroke-width="1" font-style="normal" stroke="#000000">
    <rect x="0" width="0" y="0" height="0"/>
   </g>
   <g fill="none" font-family="Noto Sans" font-weight="400" transform="matrix(1,0,0,1,2968.8,2946.98)" font-size="31.75" stroke-linecap="round" stroke-opacity="1" stroke-linejoin="bevel" stroke-width="7" font-style="normal" stroke="#000000">
    <path d="M540,-44 L480,-44" vector-effect="none" fill-rule="evenodd"/>
   </g>
   <g fill="none" font-family="Noto Sans" font-weight="400" transform="matrix(1,0,0,1,2968.8,2946.98)" font-size="31.75" stroke-linecap="round" stroke-opacity="1" stroke-linejoin="bevel" stroke-width="7" font-style="normal" stroke="#000000">
    <path d="M-480,-44 L-540,-44" vector-effect="none" fill-rule="evenodd"/>
   </g>
   <g fill="none" font-family="Noto Sans" font-weight="400" transform="matrix(1,0,0,1,2968.8,2946.98)" font-size="31.75" stroke-linecap="round" stroke-opacity="1" stroke-linejoin="bevel" stroke-width="7" font-style="normal" stroke="#000000">
    <path d="M-540,-244 L-540,-44" vector-effect="none" fill-rule="evenodd"/>
   </g>
   <g fill="none" font-family="Noto Sans" font-weight="400" transform="matrix(1,0,0,1,2968.8,2946.98)" font-size="31.75" stroke-linecap="round" stroke-opacity="1" stroke-linejoin="bevel" stroke-width="7" font-style="normal" stroke="#000000">
    <path d="M540,-244 L540,-44" vector-effect="none" fill-rule="evenodd"/>
   </g>
   <g fill="none" font-family="Noto Sans" font-weight="400" transform="matrix(1,0,0,1,2968.8,2946.98)" font-size="31.75" stroke-linecap="round" stroke-opacity="1" stroke-linejoin="bevel" stroke-width="7" font-style="normal" stroke="#000000">
    <path d="M480,-44 L540,-44" vector-effect="none" fill-rule="evenodd"/>
   </g>
   <g fill="none" font-family="Noto Sans" font-weight="400" transform="matrix(1,0,0,1,2968.8,2946.98)" font-size="31.75" stroke-linecap="round" stroke-opacity="1" stroke-linejoin="bevel" stroke-width="7" font-style="normal" stroke="#000000">
    <path d="M-540,-44 L-480,-44" vector-effect="none" fill-rule="evenodd"/>
   </g>
   <g fill="none" font-family="Noto Sans" font-weight="400" transform="matrix(1,0,0,1,2968.8,2946.98)" font-size="31.75" stroke-linecap="round" stroke-opacity="1" stroke-linejoin="bevel" stroke-width="7" font-style="normal" stroke="#000000">
    <path d="M-540,-244 L-390,-244" vector-effect="none" fill-rule="evenodd"/>
   </g>
   <g fill="none" font-family="Noto Sans" font-weight="400" transform="matrix(1,0,0,1,2968.8,2946.98)" font-size="31.75" stroke-linecap="round" stroke-opacity="1" stroke-linejoin="bevel" stroke-width="7" font-style="normal" stroke="#000000">
    <path d="M-390,146 L-390,-244" vector-effect="none" fill-rule="evenodd"/>
   </g>
   <g fill="none" font-family="Noto Sans" font-weight="400" transform="matrix(1,0,0,1,2968.8,2946.98)" font-size="31.75" stroke-linecap="round" stroke-opacity="1" stroke-linejoin="bevel" stroke-width="7" font-style="normal" stroke="#000000">
    <path d="M-390,146 L-480,146" vector-effect="none" fill-rule="evenodd"/>
   </g>
   <g fill="none" font-family="Noto Sans" font-weight="400" transform="matrix(1,0,0,1,2968.8,2946.98)" font-size="31.75" stroke-linecap="round" stroke-opacity="1" stroke-linejoin="bevel" stroke-width="7" font-style="normal" stroke="#000000">
    <path d="M-480,146 L-480,-44" vector-effect="none" fill-rule="evenodd"/>
   </g>
   <g fill="none" font-family="Noto Sans" font-weight="400" transform="matrix(1,0,0,1,2968.8,2946.98)" font-size="31.75" stroke-linecap="round" stroke-opacity="1" stroke-linejoin="bevel" stroke-width="7" font-style="normal" stroke="#000000">
    <path d="M390,-244 L540,-244" vector-effect="none" fill-rule="evenodd"/>
   </g>
   <g fill="none" font-family="Noto Sans" font-weight="400" transform="matrix(1,0,0,1,2968.8,2946.98)" font-size="31.75" stroke-linecap="round" stroke-opacity="1" stroke-linejoin="bevel" stroke-width="7" font-style="normal" stroke="#000000">
    <path d="M390,-244 L9.55225e-14,-244" vector-effect="none" fill-rule="evenodd"/>
   </g>
   <g fill="none" font-family="Noto Sans" font-weight="400" transform="matrix(1,0,0,1,2968.8,2946.98)" font-size="31.75" stroke-linecap="round" stroke-opacity="1" stroke-linejoin="bevel" stroke-width="7" font-style="normal" stroke="#000000">
    <path d="M0,-244 L-390,-244" vector-effect="none" fill-rule="evenodd"/>
   </g>
   <g fill="none" font-family="Noto Sans" font-weight="400" transform="matrix(1,0,0,1,2968.8,2946.98)" font-size="31.75" stroke-linecap="round" stroke-opacity="1" stroke-linejoin="bevel" stroke-width="7" font-style="normal" stroke="#000000">
    <path d="M480,146 L480,-44" vector-effect="none" fill-rule="evenodd"/>
   </g>
   <g fill="none" font-family="Noto Sans" font-weight="400" transform="matrix(1,0,0,1,2968.8,2946.98)" font-size="31.75" stroke-linecap="round" stroke-opacity="1" stroke-linejoin="bevel" stroke-width="7" font-style="normal" stroke="#000000">
    <path d="M480,146 L390,146" vector-effect="none" fill-rule="evenodd"/>
   </g>
   <g fill="none" font-family="Noto Sans" font-weight="400" transform="matrix(1,0,0,1,2968.8,2946.98)" font-size="31.75" stroke-linecap="round" stroke-opacity="1" stroke-linejoin="bevel" stroke-width="7" font-style="normal" stroke="#000000">
    <path d="M390,146 L390,-244" vector-effect="none" fill-rule="evenodd"/>
   </g>
   <g fill="none" font-family="Noto Sans" font-weight="400" transform="matrix(1,0,0,1,2968.8,2946.98)" font-size="31.75" stroke-linecap="round" stroke-opacity="1" stroke-linejoin="bevel" stroke-width="7" font-style="normal" stroke="#000000">
    <path d="M-390,146 L-9.55225e-14,146" vector-effect="none" fill-rule="evenodd"/>
   </g>
   <g fill="none" font-family="Noto Sans" font-weight="400" transform="matrix(1,0,0,1,2968.8,2946.98)" font-size="31.75" stroke-linecap="round" stroke-opacity="1" stroke-linejoin="bevel" stroke-width="7" font-style="normal" stroke="#000000">
    <path d="M0,146 L390,146" vector-effect="none" fill-rule="evenodd"/>
   </g>
   <g fill="none" font-family="Noto Sans" font-weight="400" stroke-dasharray="20,10" transform="matrix(1,0,0,1,2968.8,2946.98)" font-size="31.75" stroke-linecap="round" stroke-opacity="1" stroke-linejoin="bevel" stroke-width="5" stroke-dashoffset="0" font-style="normal" stroke="#000000">
    <path d="M0,176 L0,-274" vector-effect="none" fill-rule="evenodd"/>
   </g>
   <g fill="none" font-family="Noto Sans" font-weight="400" transform="matrix(1,0,0,1,2904.89,2610.48)" font-size="31.75" stroke-linecap="square" stroke-opacity="1" stroke-linejoin="bevel" stroke-width="1" font-style="normal" stroke="#000000">
    <text fill="#000000" font-family="DejaVu Sans" xml:space="preserve" font-weight="400" font-size="35" x="4" fill-opacity="1" y="37" font-style="normal" stroke="none">39.0</text>
   </g>
   <g fill="none" font-family="Noto Sans" font-weight="400" transform="matrix(1,0,0,1,2968.8,2946.98)" font-size="31.75" stroke-linecap="round" stroke-opacity="1" stroke-linejoin="bevel" stroke-width="3.5" font-style="normal" stroke="#ff0000">
    <path d="M390,-275.498 L-390,-275.498 M-390,-244 L-390,-303.498 M390,-244 L390,-303.498" vector-effect="none" fill-rule="evenodd"/>
   </g>
   <g fill="#ff0000" font-family="Noto Sans" font-weight="400" transform="matrix(1,0,0,1,2578.8,2671.48)" font-size="31.75" stroke-linecap="round" stroke-opacity="1" stroke-linejoin="bevel" stroke-width="3.5" fill-opacity="1" font-style="normal" stroke="#ff0000">
    <path d="M0,0 L35,5.83333 L35,-5.83333 L0,0" vector-effect="none" fill-rule="evenodd"/>
   </g>
   <g fill="#ff0000" font-family="Noto Sans" font-weight="400" transform="matrix(1,0,0,1,3358.8,2671.48)" font-size="31.75" stroke-linecap="round" stroke-opacity="1" stroke-linejoin="bevel" stroke-width="3.5" fill-opacity="1" font-style="normal" stroke="#ff0000">
    <path d="M0,0 L-35,-5.83333 L-35,5.83333 L0,0" vector-effect="none" fill-rule="evenodd"/>
   </g>
   <g fill="none" font-family="Noto Sans" font-weight="400" transform="matrix(1,0,0,1,2914.2,2540.66)" font-size="31.75" stroke-linecap="square" stroke-opacity="1" stroke-linejoin="bevel" stroke-width="1" font-style="normal" stroke="#000000">
    <text fill="#000000" font-family="DejaVu Sans" xml:space="preserve" font-weight="400" font-size="35" x="4" fill-opacity="1" y="37" font-style="normal" stroke="none">54.0</text>
   </g>
   <g fill="none" font-family="Noto Sans" font-weight="400" transform="matrix(1,0,0,1,2968.8,2946.98)" font-size="31.75" stroke-linecap="round" stroke-opacity="1" stroke-linejoin="bevel" stroke-width="3.5" font-style="normal" stroke="#ff0000">
    <path d="M540,-345.324 L-540,-345.324 M-540,-244 L-540,-373.324 M540,-244 L540,-373.324" vector-effect="none" fill-rule="evenodd"/>
   </g>
   <g fill="#ff0000" font-family="Noto Sans" font-weight="400" transform="matrix(1,0,0,1,2428.8,2601.66)" font-size="31.75" stroke-linecap="round" stroke-opacity="1" stroke-linejoin="bevel" stroke-width="3.5" fill-opacity="1" font-style="normal" stroke="#ff0000">
    <path d="M0,0 L35,5.83333 L35,-5.83333 L0,0" vector-effect="none" fill-rule="evenodd"/>
   </g>
   <g fill="#ff0000" font-family="Noto Sans" font-weight="400" transform="matrix(1,0,0,1,3508.8,2601.66)" font-size="31.75" stroke-linecap="round" stroke-opacity="1" stroke-linejoin="bevel" stroke-width="3.5" fill-opacity="1" font-style="normal" stroke="#ff0000">
    <path d="M0,0 L-35,-5.83333 L-35,5.83333 L0,0" vector-effect="none" fill-rule="evenodd"/>
   </g>
   <g fill="none" font-family="Noto Sans" font-weight="400" transform="matrix(0,-1,1,0,2615.97,2935.62)" font-size="31.75" stroke-linecap="square" stroke-opacity="1" stroke-linejoin="bevel" stroke-width="1" font-style="normal" stroke="#000000">
    <text fill="#000000" font-family="DejaVu Sans" xml:space="preserve" font-weight="400" font-size="35" x="4" fill-opacity="1" y="37" font-style="normal" stroke="none">19.5</text>
   </g>
   <g fill="none" font-family="Noto Sans" font-weight="400" transform="matrix(1,0,0,1,2968.8,2946.98)" font-size="31.75" stroke-linecap="round" stroke-opacity="1" stroke-linejoin="bevel" stroke-width="3.5" font-style="normal" stroke="#ff0000">
    <path d="M-291.829,-244 L-291.829,146 M-390,146 L-263.829,146 M-390,-244 L-263.829,-244" vector-effect="none" fill-rule="evenodd"/>
   </g>
   <g fill="#ff0000" font-family="Noto Sans" font-weight="400" transform="matrix(1,0,0,1,2676.97,3092.98)" font-size="31.75" stroke-linecap="round" stroke-opacity="1" stroke-linejoin="bevel" stroke-width="3.5" fill-opacity="1" font-style="normal" stroke="#ff0000">
    <path d="M0,0 L5.83333,-35 L-5.83333,-35 L0,0" vector-effect="none" fill-rule="evenodd"/>
   </g>
   <g fill="#ff0000" font-family="Noto Sans" font-weight="400" transform="matrix(1,0,0,1,2676.97,2702.98)" font-size="31.75" stroke-linecap="round" stroke-opacity="1" stroke-linejoin="bevel" stroke-width="3.5" fill-opacity="1" font-style="normal" stroke="#ff0000">
    <path d="M0,0 L-5.83333,35 L5.83333,35 L0,0" vector-effect="none" fill-rule="evenodd"/>
   </g>
   <g fill="none" font-family="Noto Sans" font-weight="400" transform="matrix(0,-1,1,0,2319.33,2831.31)" font-size="31.75" stroke-linecap="square" stroke-opacity="1" stroke-linejoin="bevel" stroke-width="1" font-style="normal" stroke="#000000">
    <text fill="#000000" font-family="DejaVu Sans" xml:space="preserve" font-weight="400" font-size="35" x="4" fill-opacity="1" y="37" font-style="normal" stroke="none">10.0</text>
   </g>
   <g fill="none" font-family="Noto Sans" font-weight="400" transform="matrix(1,0,0,1,2968.8,2946.98)" font-size="31.75" stroke-linecap="round" stroke-opacity="1" stroke-linejoin="bevel" stroke-width="3.5" font-style="normal" stroke="#ff0000">
    <path d="M-588.463,-44 L-588.463,-244 M-540,-244 L-616.463,-244 M-540,-44 L-616.463,-44" vector-effect="none" fill-rule="evenodd"/>
   </g>
   <g fill="#ff0000" font-family="Noto Sans" font-weight="400" transform="matrix(1,0,0,1,2380.33,2702.98)" font-size="31.75" stroke-linecap="round" stroke-opacity="1" stroke-linejoin="bevel" stroke-width="3.5" fill-opacity="1" font-style="normal" stroke="#ff0000">
    <path d="M0,0 L-5.83333,35 L5.83333,35 L0,0" vector-effect="none" fill-rule="evenodd"/>
   </g>
   <g fill="#ff0000" font-family="Noto Sans" font-weight="400" transform="matrix(1,0,0,1,2380.33,2902.98)" font-size="31.75" stroke-linecap="round" stroke-opacity="1" stroke-linejoin="bevel" stroke-width="3.5" fill-opacity="1" font-style="normal" stroke="#ff0000">
    <path d="M0,0 L5.83333,-35 L-5.83333,-35 L0,0" vector-effect="none" fill-rule="evenodd"/>
   </g>
   <g fill="none" font-family="Noto Sans" font-weight="400" transform="matrix(0,-1,1,0,2263.22,3024.48)" font-size="31.75" stroke-linecap="square" stroke-opacity="1" stroke-linejoin="bevel" stroke-width="1" font-style="normal" stroke="#000000">
    <text fill="#000000" font-family="DejaVu Sans" xml:space="preserve" font-weight="400" font-size="35" x="4" fill-opacity="1" y="37" font-style="normal" stroke="none">9.5</text>
   </g>
   <g fill="none" font-family="Noto Sans" font-weight="400" transform="matrix(1,0,0,1,2968.8,2946.98)" font-size="31.75" stroke-linecap="round" stroke-opacity="1" stroke-linejoin="bevel" stroke-width="3.5" font-style="normal" stroke="#ff0000">
    <path d="M-644.582,146 L-644.582,-44 M-540,-44 L-672.582,-44 M-480,146 L-672.582,146" vector-effect="none" fill-rule="evenodd"/>
   </g>
   <g fill="#ff0000" font-family="Noto Sans" font-weight="400" transform="matrix(1,0,0,1,2324.22,2902.98)" font-size="31.75" stroke-linecap="round" stroke-opacity="1" stroke-linejoin="bevel" stroke-width="3.5" fill-opacity="1" font-style="normal" stroke="#ff0000">
    <path d="M0,0 L-5.83333,35 L5.83333,35 L0,0" vector-effect="none" fill-rule="evenodd"/>
   </g>
   <g fill="#ff0000" font-family="Noto Sans" font-weight="400" transform="matrix(1,0,0,1,2324.22,3092.98)" font-size="31.75" stroke-linecap="round" stroke-opacity="1" stroke-linejoin="bevel" stroke-width="3.5" fill-opacity="1" font-style="normal" stroke="#ff0000">
    <path d="M0,0 L5.83333,-35 L-5.83333,-35 L0,0" vector-effect="none" fill-rule="evenodd"/>
   </g>
  </g>
 </g>
</svg>
